<svg width="104" height="104" xmlns="http://www.w3.org/2000/svg" xmlns:xlink="http://www.w3.org/1999/xlink" overflow="hidden"><defs><clipPath id="clip0"><rect x="724" y="225" width="104" height="104"/></clipPath></defs><g clip-path="url(#clip0)" transform="translate(-724 -225)"><path d="M746.75 259.872C749.742 259.872 752.167 257.447 752.167 254.456 752.167 251.464 749.742 249.039 746.75 249.039 743.758 249.039 741.333 251.464 741.333 254.456 741.333 257.447 743.758 259.872 746.75 259.872Z" fill="#92D050"/><path d="M753.813 272.147C754.28 272.483 754.841 272.665 755.417 272.667L763 272.667C764.496 272.667 765.708 271.454 765.708 269.958 765.708 268.463 764.496 267.25 763 267.25L756.305 267.25 751.148 263.469C750.022 261.922 748.154 261.095 746.252 261.302 743.449 261.651 741.36 264.058 741.409 266.882L741.409 282.417C741.409 285.408 743.834 287.833 746.826 287.833L752.167 287.833 752.167 287.833 758.667 287.833 758.667 301.613C758.667 303.109 759.879 304.322 761.375 304.322 762.871 304.322 764.083 303.109 764.083 301.613L764.083 285.092C764.083 283.597 762.871 282.384 761.375 282.384L752.167 282.384 752.167 270.922Z" fill="#92D050"/><path d="M805.25 259.872C808.242 259.872 810.667 257.447 810.667 254.456 810.667 251.464 808.242 249.039 805.25 249.039 802.258 249.039 799.833 251.464 799.833 254.456 799.833 257.447 802.258 259.872 805.25 259.872Z" fill="#92D050"/><path d="M805.748 261.248C803.846 261.041 801.978 261.868 800.852 263.415L795.695 267.25 789 267.25C787.504 267.25 786.292 268.463 786.292 269.958 786.292 271.454 787.504 272.667 789 272.667L796.583 272.667C797.159 272.665 797.72 272.483 798.187 272.147L799.833 270.922 799.833 282.417 790.657 282.417C789.162 282.417 787.949 283.629 787.949 285.125L787.949 301.613C787.949 303.109 789.162 304.322 790.657 304.322 792.153 304.322 793.366 303.109 793.366 301.613L793.366 287.833 799.866 287.833 799.866 287.833 805.153 287.833C808.144 287.833 810.569 285.408 810.569 282.417L810.569 266.828C810.62 264.011 808.543 261.607 805.748 261.248Z" fill="#92D050"/><path d="M794.417 274.833 757.583 274.833C756.387 274.833 755.417 275.803 755.417 277 755.417 278.197 756.387 279.167 757.583 279.167L773.833 279.167 773.833 300.833 767.333 300.833 767.333 305.167 784.667 305.167 784.667 300.833 778.167 300.833 778.167 279.167 794.417 279.167C795.613 279.167 796.583 278.197 796.583 277 796.583 275.803 795.613 274.833 794.417 274.833Z" fill="#92D050"/><path d="M754.333 290 739.167 290 739.167 268.333C739.167 267.137 738.197 266.167 737 266.167 735.803 266.167 734.833 267.137 734.833 268.333L734.833 292.167C734.833 293.363 735.803 294.333 737 294.333L743.5 294.333 743.5 300.833 739.167 300.833 739.167 305.167 752.167 305.167 752.167 300.833 747.833 300.833 747.833 294.333 754.333 294.333C755.53 294.333 756.5 293.363 756.5 292.167 756.5 290.97 755.53 290 754.333 290Z" fill="#92D050"/><path d="M815 266.708C813.803 266.708 812.833 267.678 812.833 268.875L812.833 290 797.667 290C796.47 290 795.5 290.97 795.5 292.167 795.5 293.363 796.47 294.333 797.667 294.333L804.167 294.333 804.167 300.833 799.833 300.833 799.833 305.167 812.833 305.167 812.833 300.833 808.5 300.833 808.5 294.333 815 294.333C816.197 294.333 817.167 293.363 817.167 292.167L817.167 268.875C817.167 267.678 816.197 266.708 815 266.708Z" fill="#92D050"/></g></svg>