<svg width="92" height="93" xmlns="http://www.w3.org/2000/svg" xmlns:xlink="http://www.w3.org/1999/xlink" overflow="hidden"><defs><clipPath id="clip0"><rect x="153" y="196" width="92" height="93"/></clipPath></defs><g clip-path="url(#clip0)" transform="translate(-153 -196)"><path d="M52.7083 25.7792C52.7083 29.5167 49.7375 32.4875 46 32.4875 42.2625 32.4875 39.2917 29.5167 39.2917 25.7792 39.2917 22.0417 42.2625 19.0708 46 19.0708 49.7375 19.0708 52.7083 22.1375 52.7083 25.7792" fill="#92D050" transform="matrix(1 0 0 1.01087 153 196)"/><path d="M79.5417 29.6125C79.5417 33.35 76.5708 36.3208 72.8333 36.3208 69.0958 36.3208 66.125 33.35 66.125 29.6125 66.125 25.875 69.0958 22.9042 72.8333 22.9042 76.5708 22.9042 79.5417 25.875 79.5417 29.6125" fill="#92D050" transform="matrix(1 0 0 1.01087 153 196)"/><path d="M25.875 29.6125C25.875 33.35 22.9042 36.3208 19.1667 36.3208 15.4292 36.3208 12.4583 33.35 12.4583 29.6125 12.4583 25.875 15.4292 22.9042 19.1667 22.9042 22.9042 22.9042 25.875 25.875 25.875 29.6125" fill="#92D050" transform="matrix(1 0 0 1.01087 153 196)"/><path d="M8.24167 72.9292C8.24167 58.9375 25.1083 47.6292 46 47.6292 66.7958 47.6292 83.7583 58.9375 83.7583 72.9292L8.24167 72.9292Z" fill="#92D050" transform="matrix(1 0 0 1.01087 153 196)"/><path d="M16.8667 51.175C20.8917 48.4917 25.5875 46.3833 30.6667 45.0417L30.6667 43.9875C30.6667 42.9333 30.1875 41.8792 29.5167 41.2083 29.2292 40.9208 28.5583 40.5375 27.6958 40.1542 22.425 37.6625 16.1958 37.6625 10.8292 40.0583 9.87083 40.4417 9.10417 40.9208 8.72083 41.2083 8.14583 41.8792 7.66667 42.9333 7.66667 43.9875L7.66667 60.2792C9.87083 56.925 12.9375 53.7625 16.8667 51.175" fill="#92D050" transform="matrix(1 0 0 1.01087 153 196)"/><path d="M57.5 44.0833 57.5 40.1542C57.5 39.1 57.0208 38.0458 56.35 37.375 56.0625 37.0875 55.3917 36.7042 54.5292 36.3208 49.2583 33.8292 43.0292 33.8292 37.6625 36.225 36.7042 36.6083 35.9375 37.0875 35.5542 37.375 34.7875 38.0458 34.4042 39.1 34.4042 40.1542L34.4042 44.0833C38.1417 43.3167 41.975 42.9333 45.9042 42.9333 49.8333 42.9333 53.7625 43.4125 57.5 44.0833" fill="#92D050" transform="matrix(1 0 0 1.01087 153 196)"/><path d="M84.3333 60.2792 84.3333 43.9875C84.3333 42.9333 83.8542 41.8792 83.1833 41.2083 82.8958 40.9208 82.225 40.5375 81.3625 40.1542 76.0917 37.6625 69.8625 37.6625 64.4958 40.0583 63.5375 40.4417 62.7708 40.9208 62.3875 41.2083 61.6208 41.8792 61.2375 42.9333 61.2375 43.9875L61.2375 45.0417C66.3167 46.3833 71.0125 48.4917 75.0375 51.175 79.0625 53.7625 82.1292 56.925 84.3333 60.2792" fill="#92D050" transform="matrix(1 0 0 1.01087 153 196)"/></g></svg>