<svg width="99" height="99" xmlns="http://www.w3.org/2000/svg" xmlns:xlink="http://www.w3.org/1999/xlink" overflow="hidden"><defs><clipPath id="clip0"><rect x="432" y="194" width="99" height="99"/></clipPath></defs><g clip-path="url(#clip0)" transform="translate(-432 -194)"><path d="M483.562 224.938 479.438 224.938C477.169 224.938 475.312 223.081 475.312 220.812L475.312 212.562C475.312 210.294 477.169 208.438 479.438 208.438L483.562 208.438C485.831 208.438 487.688 210.294 487.688 212.562L487.688 220.812C487.688 223.081 485.831 224.938 483.562 224.938Z" fill="#92D050"/><path d="M514.5 245.562 489.75 245.562 489.75 241.438 514.5 241.438 514.5 245.562ZM514.5 257.938 489.75 257.938 489.75 253.812 514.5 253.812 514.5 257.938ZM514.5 270.312 489.75 270.312 489.75 266.188 514.5 266.188 514.5 270.312ZM481.5 270.312 448.5 270.312 448.5 262.062C448.5 260.825 449.119 259.587 450.15 258.763 452.419 257.112 455.306 255.669 458.194 254.844 460.462 254.225 462.731 253.812 465 253.812 467.475 253.812 469.744 254.225 471.806 254.844 474.694 255.669 477.581 256.906 479.85 258.763 480.881 259.587 481.5 260.825 481.5 262.062L481.5 270.312ZM465 235.25C469.538 235.25 473.25 238.962 473.25 243.5 473.25 248.038 469.538 251.75 465 251.75 460.462 251.75 456.75 248.038 456.75 243.5 456.75 238.962 460.462 235.25 465 235.25ZM518.625 220.812 491.812 220.812C491.812 225.35 488.1 229.062 483.562 229.062L479.438 229.062C474.9 229.062 471.188 225.35 471.188 220.812L444.375 220.812C442.106 220.812 440.25 222.669 440.25 224.938L440.25 274.438C440.25 276.706 442.106 278.562 444.375 278.562L518.625 278.562C520.894 278.562 522.75 276.706 522.75 274.438L522.75 224.938C522.75 222.669 520.894 220.812 518.625 220.812Z" fill="#92D050"/></g></svg>