<svg width="96" height="86" xmlns="http://www.w3.org/2000/svg" xmlns:xlink="http://www.w3.org/1999/xlink" overflow="hidden"><defs><clipPath id="clip0"><rect x="135" y="482" width="96" height="86"/></clipPath></defs><g clip-path="url(#clip0)" transform="translate(-135 -482)"><path d="M48.1063 43C48.1063 45.9685 45.6998 48.375 42.7313 48.375 39.7627 48.375 37.3563 45.9685 37.3563 43 37.3563 40.0315 39.7627 37.625 42.7313 37.625 45.6998 37.625 48.1063 40.0315 48.1063 43Z" fill="#92D050" transform="matrix(1.11628 0 0 1 135 482)"/><path d="M74.2646 25.0833C72.7417 22.4854 69.3375 21.2313 64.6792 21.2313 61.7229 21.2313 58.3187 21.7687 54.5563 22.7542 51.9583 13.3479 47.6583 7.16667 42.7313 7.16667 37.8937 7.16667 33.5042 13.2583 30.9958 22.575 27.4125 21.6792 24.1875 21.1417 21.3208 21.1417 16.6625 21.1417 13.2583 22.3958 11.7354 24.9937 9.22708 29.2938 12.5417 36.1917 19.4396 43.1792 12.8104 49.9875 9.76458 56.6167 12.1833 60.8271 13.7063 63.425 17.1104 64.6792 21.7687 64.6792 24.4562 64.6792 27.5917 64.2312 30.9958 63.425 33.5938 72.7417 37.8937 78.8333 42.7313 78.8333 47.5687 78.8333 51.9583 72.7417 54.4667 63.425 58.05 64.3208 61.275 64.8583 64.1417 64.8583 68.8 64.8583 72.2042 63.6042 73.7271 61.0062 76.1458 56.7958 73.1 50.1667 66.4708 43.3583 73.5479 36.2812 76.7729 29.3833 74.2646 25.0833ZM64.6792 24.8146C67.9938 24.8146 70.4125 25.6208 71.1292 26.875 72.4729 29.2042 70.0542 34.6688 63.9625 40.7604 61.8125 38.7896 59.3938 36.8187 56.7062 34.9375 56.4375 31.8917 55.9896 28.9354 55.3625 26.1583 58.7667 25.2625 61.9917 24.8146 64.6792 24.8146ZM48.6437 52.3167C46.7625 53.3917 44.8812 54.3771 43 55.2729 41.1188 54.3771 39.2375 53.3917 37.3563 52.3167 35.5646 51.2417 33.7729 50.1667 32.1604 49.0917 31.9813 47.1208 31.9813 45.15 31.9813 43 31.9813 41.0292 32.0708 39.1479 32.1604 37.2667 33.9521 36.0125 35.8333 34.8479 37.8937 33.6833 39.5958 32.6979 41.2979 31.8021 43 30.9958 44.7021 31.8021 46.4042 32.6979 48.1063 33.6833 49.8979 34.7583 51.6896 35.8333 53.3021 36.9083 53.4813 38.8792 53.4813 40.85 53.4813 43 53.4813 45.2396 53.3917 47.3896 53.2125 49.45 51.7792 50.4354 50.2562 51.3312 48.6437 52.3167ZM52.7646 54.0187C52.4958 55.7208 52.2271 57.4229 51.9583 58.9458 50.4354 58.4083 48.8229 57.8708 47.2104 57.1542 48.2854 56.6167 49.3604 55.9896 50.4354 55.3625 51.2417 54.9146 52.0479 54.4667 52.7646 54.0187ZM38.7896 57.1542C36.9979 57.8708 35.2958 58.4979 33.5938 59.0354 33.2354 57.3333 32.9667 55.5417 32.6979 53.6604 33.6833 54.2875 34.5792 54.825 35.6542 55.4521 36.6396 55.9896 37.7146 56.6167 38.7896 57.1542ZM28.4875 46.4042C27.0542 45.3292 25.8 44.2542 24.6354 43.1792 25.8 42.1042 27.1437 41.0292 28.4875 39.9542 28.4875 40.9396 28.3979 41.925 28.3979 43 28.3979 44.1646 28.3979 45.3292 28.4875 46.4042ZM32.6083 32.6979C32.8771 30.7271 33.1458 28.8458 33.5042 27.0542 35.2062 27.5917 36.9979 28.3083 38.7896 29.025 37.8937 29.4729 36.9083 30.0104 36.0125 30.5479 34.9375 31.2646 33.7729 31.9813 32.6083 32.6979ZM47.1208 29.025C48.7333 28.3083 50.3458 27.7708 51.9583 27.2333 52.3167 28.8458 52.5854 30.5479 52.8542 32.3396 51.8688 31.7125 50.9729 31.175 49.8979 30.5479 49.0021 30.1 48.1063 29.5625 47.1208 29.025ZM56.975 39.5958C58.5875 40.85 60.0208 42.0146 61.3646 43.2687 60.0208 44.4333 58.5875 45.6875 56.975 46.8521 57.0646 45.5979 57.0646 44.3438 57.0646 43.0896 57.0646 41.8354 57.0646 40.6708 56.975 39.5958ZM42.7313 10.75C45.4188 10.75 48.9125 15.4979 51.1521 23.7396 48.5542 24.6354 45.7771 25.7104 43 26.9646 40.0438 25.6208 37.1771 24.4562 34.4 23.5604 36.6396 15.4083 40.0438 10.75 42.7313 10.75ZM14.7812 26.875C15.5875 25.5312 17.9167 24.8146 21.2313 24.8146 23.8292 24.8146 26.7854 25.2625 30.0104 26.0688 29.3833 28.9354 28.9354 32.0708 28.6667 35.2958 26.1583 37.0875 23.9188 38.8792 21.9479 40.7604 15.9458 34.6688 13.4375 29.2042 14.7812 26.875ZM21.7687 61.1854C18.4542 61.1854 16.0354 60.3792 15.3188 59.125 13.975 56.7958 16.3042 51.6 22.0375 45.6875 24.0979 47.4792 26.3375 49.2708 28.7562 51.0625 29.025 54.1979 29.4729 57.2438 30.1 60.0208 27.1437 60.8271 24.2771 61.1854 21.7687 61.1854ZM42.7313 75.25C40.0438 75.25 36.6396 70.5917 34.4 62.5292 37.1771 61.6333 40.0438 60.5583 43 59.2146 45.7771 60.4688 48.4646 61.5437 51.0625 62.35 48.8229 70.5917 45.4188 75.25 42.7313 75.25ZM70.6813 59.125C69.875 60.4688 67.5458 61.1854 64.2312 61.1854 61.6333 61.1854 58.5875 60.7375 55.4521 59.9313 55.9896 57.2438 56.4375 54.4667 56.7062 51.4208 59.3938 49.5396 61.8125 47.6583 63.9625 45.6875 69.6958 51.6 72.025 56.7958 70.6813 59.125Z" fill="#92D050" transform="matrix(1.11628 0 0 1 135 482)"/></g></svg>