<?xml version="1.0" encoding="UTF-8"?>
<!DOCTYPE svg PUBLIC "-//W3C//DTD SVG 1.1//EN" "http://www.w3.org/Graphics/SVG/1.1/DTD/svg11.dtd">
<!-- Creator: CorelDRAW 2019 (64-Bit) -->
<svg xmlns="http://www.w3.org/2000/svg" xml:space="preserve" width="46px" height="30px" version="1.1" style="shape-rendering:geometricPrecision; text-rendering:geometricPrecision; image-rendering:optimizeQuality; fill-rule:evenodd; clip-rule:evenodd"
viewBox="0 0 4600 3000"
 xmlns:xlink="http://www.w3.org/1999/xlink">
 <defs>
  <style type="text/css">
   <![CDATA[
    .str0 {stroke:#19BE00;stroke-width:200;stroke-linecap:round;stroke-linejoin:round;stroke-miterlimit:22.9256}
    .fil0 {fill:none}
   ]]>
  </style>
 </defs>
 <g id="Слой_x0020_1">
  <metadata id="CorelCorpID_0Corel-Layer"/>
  <g id="_1811708691664">
   <path class="fil0 str0" d="M656 131l2283 0 0 456 -1278 0 0 457 1278 0 0 456 -1278 0 0 457 1278 0 0 456 -2283 0c-251,0 -456,-205 -456,-456l0 -1370c0,-251 205,-456 456,-456z"/>
   <path class="fil0 str0" d="M3944 587l-2283 0 0 457 1278 0 0 456 -1278 0 0 457 1278 0 0 456 -1278 0 0 456 2283 0c251,0 456,-205 456,-456l0 -1369c0,-252 -205,-457 -456,-457z"/>
  </g>
 </g>
</svg>
