<svg width="87" height="94" xmlns="http://www.w3.org/2000/svg" xmlns:xlink="http://www.w3.org/1999/xlink" overflow="hidden"><defs><clipPath id="clip0"><rect x="456" y="505" width="87" height="94"/></clipPath></defs><g clip-path="url(#clip0)" transform="translate(-456 -505)"><path d="M43.5 9.0625C24.4688 9.0625 9.0625 24.4688 9.0625 43.5 9.0625 62.5312 24.4688 77.9375 43.5 77.9375 62.5312 77.9375 77.9375 62.5312 77.9375 43.5 77.9375 24.4688 62.5312 9.0625 43.5 9.0625ZM12.6875 43.5C12.6875 35.4344 15.7687 28.1844 20.8438 22.6562 21.6594 23.1094 22.475 23.8344 22.6562 24.4688L22.6562 30.1781C22.6562 30.5406 22.7469 30.9938 23.0187 31.2656L29 38.9688 29.4531 38.5156C29.725 38.2438 29.8156 37.7906 29.6344 37.4281L28.5469 35.6156C28.0938 34.8906 28.8187 33.9844 29.6344 34.2562 29.9062 34.3469 30.0875 34.5281 30.1781 34.7094L33.1687 40.6C33.5312 41.2344 34.075 41.7781 34.7094 41.9594L38.6969 43.3187C38.9688 43.4094 39.15 43.5906 39.2406 43.7719L39.5125 44.225C39.7844 44.8594 40.4187 45.2219 41.1438 45.2219L42.2312 45.2219C42.5031 45.2219 42.775 45.4031 42.9563 45.5844L44.1344 47.3063C44.4062 47.6687 44.7688 47.9406 45.2219 48.0312L47.125 48.4844C47.6687 48.575 47.9406 49.2094 47.7594 49.6625 47.7594 49.6625 46.3094 51.1125 46.3094 53.1969 46.3094 59.1781 51.7469 60.9 51.7469 62.2594 51.7469 65.975 51.2031 71.1406 50.9313 73.1344 48.575 73.6781 46.1281 74.0406 43.5906 74.0406 26.5531 74.3125 12.6875 60.4469 12.6875 43.5ZM55.1 72.0469C57.0938 70.325 60.4469 67.425 61.625 66.1562 63.1656 64.4344 63.4375 61.625 63.4375 61.625 63.4375 61.625 69.7812 59.9031 69.7812 55.2812 69.7812 52.1094 63.4375 50.75 63.4375 50.75 62.35 47.2156 57.0031 45.3125 52.5625 45.3125 51.5656 45.3125 48.0312 47.125 48.0312 47.125L46.2188 46.2188 46.2188 43.5C46.2188 42.9563 45.8562 42.5938 45.3125 42.5938L43.5 42.5938 43.5 39.875C43.5 39.3313 43.1375 38.9688 42.5938 38.9688L41.6875 38.9688 40.6906 39.6031C39.7844 40.2375 38.5156 39.875 38.0625 38.8781 38.0625 38.8781 37.1562 37.6094 37.1562 37.0656 37.1562 33.1687 41.6875 33.4406 41.6875 33.4406L43.6813 33.4406C44.1344 33.4406 44.4969 33.7125 44.5875 34.1656L45.1312 36.4313C45.2219 36.7937 45.5844 37.1562 46.0375 37.1562L46.4 37.1562C46.8531 37.1562 47.2156 36.8844 47.3063 36.4313L47.9406 33.0781C48.0312 32.8063 48.1219 32.5344 48.3031 32.2625L50.8406 29.0906C51.3844 28.4562 52.1094 28.0938 52.925 28.0938L55.2812 28.0938C55.825 28.0938 56.1875 27.7313 56.1875 27.1875L56.1875 26.2812 55.9156 26.0094C55.3719 25.4656 55.7344 24.4688 56.55 24.4688L57.0938 24.4688C57.6375 24.4688 58 24.8312 58 25.375 58 25.9188 58.3625 26.2812 58.9062 26.2812L59.8125 26.2812 60.3562 23.925C60.5375 23.1094 60.175 22.3844 59.5406 21.9313L51.8375 17.3094C51.7469 17.2188 51.5656 17.2188 51.3844 17.2188L49.8438 17.2188C48.8469 17.2188 48.0312 18.0344 48.0312 19.0312L48.0312 19.9375C48.0312 20.4813 47.6687 20.8438 47.125 20.8438L46.2188 20.8438 45.3125 19.9375 42.5938 19.9375C42.05 19.9375 41.6875 19.575 41.6875 19.0312L41.6875 16.7656C41.6875 16.4938 41.7781 16.2219 42.05 16.0406L47.85 13.5938 48.7562 15.1344C48.9375 15.3156 49.1188 15.4062 49.3906 15.4062L51.6562 15.4062C52.2 15.4062 52.5625 15.0438 52.5625 14.5L52.5625 14.0469C65.1594 17.9437 74.3125 29.6344 74.3125 43.5 74.3125 56.3688 66.3375 67.425 55.1 72.0469Z" fill="#92D050" transform="matrix(1 0 0 1.08046 456 505)"/><path d="M54.6469 39.6937 50.2969 38.2438C49.9344 38.1531 49.6625 38.1531 49.3 38.2438L46.2188 38.9688C45.9469 39.15 45.8562 39.5125 46.2188 39.875L50.3875 39.875C50.6594 39.875 50.8406 39.875 51.0219 39.9656L54.1937 41.2344C54.7375 41.4156 55.2812 41.0531 55.2812 40.5094 55.2812 40.1469 55.0094 39.7844 54.6469 39.6937Z" fill="#92D050" transform="matrix(1 0 0 1.08046 456 505)"/></g></svg>